ISO-10303-21;
HEADER;
/* Generated by software containing ST-Developer
 * from STEP Tools, Inc. (www.steptools.com) 
 */

FILE_DESCRIPTION(
/* description */ (''),
/* implementation_level */ '2;1');

FILE_NAME(
/* name */ 'Hack pad DOWN.step',
/* time_stamp */ '2026-01-10T15:55:29-06:00',
/* author */ (''),
/* organization */ (''),
/* preprocessor_version */ 'ST-DEVELOPER v20.1',
/* originating_system */ 'Autodesk Translation Framework v14.21.0.0',
/* authorisation */ '');

FILE_SCHEMA (('AUTOMOTIVE_DESIGN { 1 0 10303 214 3 1 1 }'));
ENDSEC;

DATA;
#10=MECHANICAL_DESIGN_GEOMETRIC_PRESENTATION_REPRESENTATION('',(#51,#52),
#910);
#11=ITEM_DEFINED_TRANSFORMATION($,$,#558,#603);
#12=(
REPRESENTATION_RELATIONSHIP($,$,#921,#920)
REPRESENTATION_RELATIONSHIP_WITH_TRANSFORMATION(#11)
SHAPE_REPRESENTATION_RELATIONSHIP()
);
#13=CONTEXT_DEPENDENT_SHAPE_REPRESENTATION(#12,#919);
#14=NEXT_ASSEMBLY_USAGE_OCCURRENCE('Component1:1','Component1:1',
'Component1:1',#923,#924,'Component1:1');
#15=FACE_BOUND('',#92,.T.);
#16=FACE_BOUND('',#93,.T.);
#17=FACE_BOUND('',#94,.T.);
#18=FACE_BOUND('',#95,.T.);
#19=FACE_BOUND('',#99,.T.);
#20=FACE_BOUND('',#100,.T.);
#21=FACE_BOUND('',#101,.T.);
#22=FACE_BOUND('',#102,.T.);
#23=CIRCLE('',#566,5.);
#24=CIRCLE('',#567,5.);
#25=CIRCLE('',#570,5.);
#26=CIRCLE('',#571,5.);
#27=CIRCLE('',#572,5.);
#28=CIRCLE('',#573,3.);
#29=CIRCLE('',#574,3.);
#30=CIRCLE('',#575,3.);
#31=CIRCLE('',#576,3.);
#32=CIRCLE('',#578,5.);
#33=CIRCLE('',#581,5.);
#34=CIRCLE('',#582,5.);
#35=CIRCLE('',#583,3.);
#36=CIRCLE('',#584,3.);
#37=CIRCLE('',#585,3.);
#38=CIRCLE('',#586,3.);
#39=CYLINDRICAL_SURFACE('',#565,5.);
#40=CYLINDRICAL_SURFACE('',#577,5.);
#41=CYLINDRICAL_SURFACE('',#587,5.);
#42=CYLINDRICAL_SURFACE('',#589,5.);
#43=CYLINDRICAL_SURFACE('',#598,3.);
#44=CYLINDRICAL_SURFACE('',#599,3.);
#45=CYLINDRICAL_SURFACE('',#600,3.);
#46=CYLINDRICAL_SURFACE('',#601,3.);
#47=SHAPE_REPRESENTATION_RELATIONSHIP('SRR','None',#921,#49);
#48=SHAPE_REPRESENTATION_RELATIONSHIP('SRR','None',#920,#50);
#49=ADVANCED_BREP_SHAPE_REPRESENTATION('',(#53),#909);
#50=ADVANCED_BREP_SHAPE_REPRESENTATION('',(#54),#908);
#51=STYLED_ITEM('',(#934),#53);
#52=STYLED_ITEM('',(#934),#54);
#53=MANIFOLD_SOLID_BREP('Body1',#543);
#54=MANIFOLD_SOLID_BREP('Body1',#544);
#55=FACE_OUTER_BOUND('',#83,.T.);
#56=FACE_OUTER_BOUND('',#84,.T.);
#57=FACE_OUTER_BOUND('',#85,.T.);
#58=FACE_OUTER_BOUND('',#86,.T.);
#59=FACE_OUTER_BOUND('',#87,.T.);
#60=FACE_OUTER_BOUND('',#88,.T.);
#61=FACE_OUTER_BOUND('',#89,.T.);
#62=FACE_OUTER_BOUND('',#90,.T.);
#63=FACE_OUTER_BOUND('',#91,.T.);
#64=FACE_OUTER_BOUND('',#96,.T.);
#65=FACE_OUTER_BOUND('',#97,.T.);
#66=FACE_OUTER_BOUND('',#98,.T.);
#67=FACE_OUTER_BOUND('',#103,.T.);
#68=FACE_OUTER_BOUND('',#104,.T.);
#69=FACE_OUTER_BOUND('',#105,.T.);
#70=FACE_OUTER_BOUND('',#106,.T.);
#71=FACE_OUTER_BOUND('',#107,.T.);
#72=FACE_OUTER_BOUND('',#108,.T.);
#73=FACE_OUTER_BOUND('',#109,.T.);
#74=FACE_OUTER_BOUND('',#110,.T.);
#75=FACE_OUTER_BOUND('',#111,.T.);
#76=FACE_OUTER_BOUND('',#112,.T.);
#77=FACE_OUTER_BOUND('',#113,.T.);
#78=FACE_OUTER_BOUND('',#114,.T.);
#79=FACE_OUTER_BOUND('',#115,.T.);
#80=FACE_OUTER_BOUND('',#116,.T.);
#81=FACE_OUTER_BOUND('',#117,.T.);
#82=FACE_OUTER_BOUND('',#118,.T.);
#83=EDGE_LOOP('',(#351,#352,#353,#354));
#84=EDGE_LOOP('',(#355,#356,#357,#358));
#85=EDGE_LOOP('',(#359,#360,#361,#362));
#86=EDGE_LOOP('',(#363,#364,#365,#366));
#87=EDGE_LOOP('',(#367,#368,#369,#370));
#88=EDGE_LOOP('',(#371,#372,#373,#374));
#89=EDGE_LOOP('',(#375,#376,#377,#378));
#90=EDGE_LOOP('',(#379,#380,#381,#382,#383,#384,#385,#386));
#91=EDGE_LOOP('',(#387,#388,#389,#390,#391,#392,#393,#394));
#92=EDGE_LOOP('',(#395));
#93=EDGE_LOOP('',(#396));
#94=EDGE_LOOP('',(#397));
#95=EDGE_LOOP('',(#398));
#96=EDGE_LOOP('',(#399,#400,#401,#402));
#97=EDGE_LOOP('',(#403,#404,#405,#406));
#98=EDGE_LOOP('',(#407,#408,#409,#410,#411,#412,#413,#414,#415,#416,#417,
#418,#419,#420,#421,#422));
#99=EDGE_LOOP('',(#423));
#100=EDGE_LOOP('',(#424));
#101=EDGE_LOOP('',(#425));
#102=EDGE_LOOP('',(#426));
#103=EDGE_LOOP('',(#427,#428,#429,#430));
#104=EDGE_LOOP('',(#431,#432,#433,#434));
#105=EDGE_LOOP('',(#435,#436,#437,#438));
#106=EDGE_LOOP('',(#439,#440,#441,#442));
#107=EDGE_LOOP('',(#443,#444,#445,#446));
#108=EDGE_LOOP('',(#447,#448,#449,#450));
#109=EDGE_LOOP('',(#451,#452,#453,#454,#455,#456,#457,#458));
#110=EDGE_LOOP('',(#459,#460,#461,#462));
#111=EDGE_LOOP('',(#463,#464,#465,#466));
#112=EDGE_LOOP('',(#467,#468,#469,#470));
#113=EDGE_LOOP('',(#471,#472,#473,#474));
#114=EDGE_LOOP('',(#475,#476,#477,#478));
#115=EDGE_LOOP('',(#479,#480,#481,#482));
#116=EDGE_LOOP('',(#483,#484,#485,#486));
#117=EDGE_LOOP('',(#487,#488,#489,#490));
#118=EDGE_LOOP('',(#491,#492,#493,#494));
#119=LINE('',#759,#175);
#120=LINE('',#761,#176);
#121=LINE('',#763,#177);
#122=LINE('',#764,#178);
#123=LINE('',#767,#179);
#124=LINE('',#769,#180);
#125=LINE('',#770,#181);
#126=LINE('',#773,#182);
#127=LINE('',#775,#183);
#128=LINE('',#776,#184);
#129=LINE('',#778,#185);
#130=LINE('',#779,#186);
#131=LINE('',#787,#187);
#132=LINE('',#790,#188);
#133=LINE('',#793,#189);
#134=LINE('',#795,#190);
#135=LINE('',#797,#191);
#136=LINE('',#799,#192);
#137=LINE('',#801,#193);
#138=LINE('',#803,#194);
#139=LINE('',#804,#195);
#140=LINE('',#807,#196);
#141=LINE('',#811,#197);
#142=LINE('',#815,#198);
#143=LINE('',#829,#199);
#144=LINE('',#830,#200);
#145=LINE('',#833,#201);
#146=LINE('',#834,#202);
#147=LINE('',#837,#203);
#148=LINE('',#839,#204);
#149=LINE('',#841,#205);
#150=LINE('',#843,#206);
#151=LINE('',#845,#207);
#152=LINE('',#847,#208);
#153=LINE('',#848,#209);
#154=LINE('',#852,#210);
#155=LINE('',#854,#211);
#156=LINE('',#864,#212);
#157=LINE('',#866,#213);
#158=LINE('',#870,#214);
#159=LINE('',#871,#215);
#160=LINE('',#874,#216);
#161=LINE('',#875,#217);
#162=LINE('',#877,#218);
#163=LINE('',#880,#219);
#164=LINE('',#882,#220);
#165=LINE('',#883,#221);
#166=LINE('',#887,#222);
#167=LINE('',#888,#223);
#168=LINE('',#889,#224);
#169=LINE('',#891,#225);
#170=LINE('',#893,#226);
#171=LINE('',#896,#227);
#172=LINE('',#898,#228);
#173=LINE('',#900,#229);
#174=LINE('',#902,#230);
#175=VECTOR('',#610,10.);
#176=VECTOR('',#611,10.);
#177=VECTOR('',#612,10.);
#178=VECTOR('',#613,10.);
#179=VECTOR('',#616,10.);
#180=VECTOR('',#617,10.);
#181=VECTOR('',#618,10.);
#182=VECTOR('',#621,10.);
#183=VECTOR('',#622,10.);
#184=VECTOR('',#623,10.);
#185=VECTOR('',#626,10.);
#186=VECTOR('',#627,10.);
#187=VECTOR('',#636,10.);
#188=VECTOR('',#639,10.);
#189=VECTOR('',#642,10.);
#190=VECTOR('',#643,10.);
#191=VECTOR('',#644,10.);
#192=VECTOR('',#645,10.);
#193=VECTOR('',#646,10.);
#194=VECTOR('',#647,10.);
#195=VECTOR('',#648,10.);
#196=VECTOR('',#651,10.);
#197=VECTOR('',#654,10.);
#198=VECTOR('',#657,10.);
#199=VECTOR('',#672,10.);
#200=VECTOR('',#673,10.);
#201=VECTOR('',#676,10.);
#202=VECTOR('',#677,10.);
#203=VECTOR('',#680,10.);
#204=VECTOR('',#681,10.);
#205=VECTOR('',#682,10.);
#206=VECTOR('',#683,10.);
#207=VECTOR('',#684,10.);
#208=VECTOR('',#685,10.);
#209=VECTOR('',#686,10.);
#210=VECTOR('',#689,10.);
#211=VECTOR('',#692,10.);
#212=VECTOR('',#703,10.);
#213=VECTOR('',#706,10.);
#214=VECTOR('',#711,10.);
#215=VECTOR('',#712,10.);
#216=VECTOR('',#715,10.);
#217=VECTOR('',#716,10.);
#218=VECTOR('',#719,10.);
#219=VECTOR('',#722,10.);
#220=VECTOR('',#723,10.);
#221=VECTOR('',#724,10.);
#222=VECTOR('',#727,10.);
#223=VECTOR('',#728,10.);
#224=VECTOR('',#729,10.);
#225=VECTOR('',#732,10.);
#226=VECTOR('',#735,10.);
#227=VECTOR('',#740,3.);
#228=VECTOR('',#743,3.);
#229=VECTOR('',#746,3.);
#230=VECTOR('',#749,3.);
#231=VERTEX_POINT('',#757);
#232=VERTEX_POINT('',#758);
#233=VERTEX_POINT('',#760);
#234=VERTEX_POINT('',#762);
#235=VERTEX_POINT('',#766);
#236=VERTEX_POINT('',#768);
#237=VERTEX_POINT('',#772);
#238=VERTEX_POINT('',#774);
#239=VERTEX_POINT('',#783);
#240=VERTEX_POINT('',#784);
#241=VERTEX_POINT('',#786);
#242=VERTEX_POINT('',#788);
#243=VERTEX_POINT('',#792);
#244=VERTEX_POINT('',#794);
#245=VERTEX_POINT('',#796);
#246=VERTEX_POINT('',#798);
#247=VERTEX_POINT('',#800);
#248=VERTEX_POINT('',#802);
#249=VERTEX_POINT('',#806);
#250=VERTEX_POINT('',#808);
#251=VERTEX_POINT('',#810);
#252=VERTEX_POINT('',#812);
#253=VERTEX_POINT('',#814);
#254=VERTEX_POINT('',#817);
#255=VERTEX_POINT('',#819);
#256=VERTEX_POINT('',#821);
#257=VERTEX_POINT('',#823);
#258=VERTEX_POINT('',#826);
#259=VERTEX_POINT('',#827);
#260=VERTEX_POINT('',#832);
#261=VERTEX_POINT('',#836);
#262=VERTEX_POINT('',#838);
#263=VERTEX_POINT('',#840);
#264=VERTEX_POINT('',#842);
#265=VERTEX_POINT('',#844);
#266=VERTEX_POINT('',#846);
#267=VERTEX_POINT('',#849);
#268=VERTEX_POINT('',#851);
#269=VERTEX_POINT('',#855);
#270=VERTEX_POINT('',#857);
#271=VERTEX_POINT('',#859);
#272=VERTEX_POINT('',#861);
#273=VERTEX_POINT('',#869);
#274=VERTEX_POINT('',#873);
#275=VERTEX_POINT('',#879);
#276=VERTEX_POINT('',#881);
#277=VERTEX_POINT('',#885);
#278=VERTEX_POINT('',#886);
#279=EDGE_CURVE('',#231,#232,#119,.T.);
#280=EDGE_CURVE('',#231,#233,#120,.T.);
#281=EDGE_CURVE('',#234,#233,#121,.T.);
#282=EDGE_CURVE('',#232,#234,#122,.T.);
#283=EDGE_CURVE('',#232,#235,#123,.T.);
#284=EDGE_CURVE('',#236,#234,#124,.T.);
#285=EDGE_CURVE('',#235,#236,#125,.T.);
#286=EDGE_CURVE('',#235,#237,#126,.T.);
#287=EDGE_CURVE('',#238,#236,#127,.T.);
#288=EDGE_CURVE('',#237,#238,#128,.T.);
#289=EDGE_CURVE('',#237,#231,#129,.T.);
#290=EDGE_CURVE('',#233,#238,#130,.T.);
#291=EDGE_CURVE('',#239,#240,#23,.T.);
#292=EDGE_CURVE('',#240,#241,#131,.T.);
#293=EDGE_CURVE('',#241,#242,#24,.T.);
#294=EDGE_CURVE('',#242,#239,#132,.T.);
#295=EDGE_CURVE('',#243,#242,#133,.T.);
#296=EDGE_CURVE('',#244,#243,#134,.T.);
#297=EDGE_CURVE('',#245,#244,#135,.T.);
#298=EDGE_CURVE('',#245,#246,#136,.T.);
#299=EDGE_CURVE('',#246,#247,#137,.T.);
#300=EDGE_CURVE('',#247,#248,#138,.T.);
#301=EDGE_CURVE('',#239,#248,#139,.T.);
#302=EDGE_CURVE('',#241,#249,#140,.T.);
#303=EDGE_CURVE('',#250,#249,#25,.T.);
#304=EDGE_CURVE('',#250,#251,#141,.T.);
#305=EDGE_CURVE('',#252,#251,#26,.T.);
#306=EDGE_CURVE('',#252,#253,#142,.T.);
#307=EDGE_CURVE('',#243,#253,#27,.T.);
#308=EDGE_CURVE('',#254,#254,#28,.T.);
#309=EDGE_CURVE('',#255,#255,#29,.T.);
#310=EDGE_CURVE('',#256,#256,#30,.T.);
#311=EDGE_CURVE('',#257,#257,#31,.T.);
#312=EDGE_CURVE('',#258,#259,#32,.T.);
#313=EDGE_CURVE('',#259,#250,#143,.T.);
#314=EDGE_CURVE('',#249,#258,#144,.T.);
#315=EDGE_CURVE('',#260,#259,#145,.T.);
#316=EDGE_CURVE('',#251,#260,#146,.T.);
#317=EDGE_CURVE('',#248,#261,#147,.T.);
#318=EDGE_CURVE('',#261,#262,#148,.T.);
#319=EDGE_CURVE('',#262,#263,#149,.T.);
#320=EDGE_CURVE('',#263,#264,#150,.T.);
#321=EDGE_CURVE('',#264,#265,#151,.T.);
#322=EDGE_CURVE('',#265,#266,#152,.T.);
#323=EDGE_CURVE('',#266,#245,#153,.T.);
#324=EDGE_CURVE('',#267,#244,#33,.T.);
#325=EDGE_CURVE('',#267,#268,#154,.T.);
#326=EDGE_CURVE('',#260,#268,#34,.T.);
#327=EDGE_CURVE('',#258,#240,#155,.T.);
#328=EDGE_CURVE('',#269,#269,#35,.T.);
#329=EDGE_CURVE('',#270,#270,#36,.T.);
#330=EDGE_CURVE('',#271,#271,#37,.T.);
#331=EDGE_CURVE('',#272,#272,#38,.T.);
#332=EDGE_CURVE('',#268,#252,#156,.T.);
#333=EDGE_CURVE('',#253,#267,#157,.T.);
#334=EDGE_CURVE('',#247,#273,#158,.T.);
#335=EDGE_CURVE('',#261,#273,#159,.T.);
#336=EDGE_CURVE('',#274,#266,#160,.T.);
#337=EDGE_CURVE('',#274,#246,#161,.T.);
#338=EDGE_CURVE('',#273,#274,#162,.T.);
#339=EDGE_CURVE('',#275,#265,#163,.T.);
#340=EDGE_CURVE('',#275,#276,#164,.T.);
#341=EDGE_CURVE('',#276,#262,#165,.T.);
#342=EDGE_CURVE('',#277,#278,#166,.T.);
#343=EDGE_CURVE('',#276,#277,#167,.T.);
#344=EDGE_CURVE('',#278,#275,#168,.T.);
#345=EDGE_CURVE('',#277,#263,#169,.T.);
#346=EDGE_CURVE('',#278,#264,#170,.T.);
#347=EDGE_CURVE('',#272,#256,#171,.T.);
#348=EDGE_CURVE('',#271,#255,#172,.T.);
#349=EDGE_CURVE('',#270,#257,#173,.T.);
#350=EDGE_CURVE('',#269,#254,#174,.T.);
#351=ORIENTED_EDGE('',*,*,#279,.F.);
#352=ORIENTED_EDGE('',*,*,#280,.T.);
#353=ORIENTED_EDGE('',*,*,#281,.F.);
#354=ORIENTED_EDGE('',*,*,#282,.F.);
#355=ORIENTED_EDGE('',*,*,#283,.F.);
#356=ORIENTED_EDGE('',*,*,#282,.T.);
#357=ORIENTED_EDGE('',*,*,#284,.F.);
#358=ORIENTED_EDGE('',*,*,#285,.F.);
#359=ORIENTED_EDGE('',*,*,#286,.F.);
#360=ORIENTED_EDGE('',*,*,#285,.T.);
#361=ORIENTED_EDGE('',*,*,#287,.F.);
#362=ORIENTED_EDGE('',*,*,#288,.F.);
#363=ORIENTED_EDGE('',*,*,#289,.F.);
#364=ORIENTED_EDGE('',*,*,#288,.T.);
#365=ORIENTED_EDGE('',*,*,#290,.F.);
#366=ORIENTED_EDGE('',*,*,#280,.F.);
#367=ORIENTED_EDGE('',*,*,#290,.T.);
#368=ORIENTED_EDGE('',*,*,#287,.T.);
#369=ORIENTED_EDGE('',*,*,#284,.T.);
#370=ORIENTED_EDGE('',*,*,#281,.T.);
#371=ORIENTED_EDGE('',*,*,#289,.T.);
#372=ORIENTED_EDGE('',*,*,#279,.T.);
#373=ORIENTED_EDGE('',*,*,#283,.T.);
#374=ORIENTED_EDGE('',*,*,#286,.T.);
#375=ORIENTED_EDGE('',*,*,#291,.T.);
#376=ORIENTED_EDGE('',*,*,#292,.T.);
#377=ORIENTED_EDGE('',*,*,#293,.T.);
#378=ORIENTED_EDGE('',*,*,#294,.T.);
#379=ORIENTED_EDGE('',*,*,#294,.F.);
#380=ORIENTED_EDGE('',*,*,#295,.F.);
#381=ORIENTED_EDGE('',*,*,#296,.F.);
#382=ORIENTED_EDGE('',*,*,#297,.F.);
#383=ORIENTED_EDGE('',*,*,#298,.T.);
#384=ORIENTED_EDGE('',*,*,#299,.T.);
#385=ORIENTED_EDGE('',*,*,#300,.T.);
#386=ORIENTED_EDGE('',*,*,#301,.F.);
#387=ORIENTED_EDGE('',*,*,#293,.F.);
#388=ORIENTED_EDGE('',*,*,#302,.T.);
#389=ORIENTED_EDGE('',*,*,#303,.F.);
#390=ORIENTED_EDGE('',*,*,#304,.T.);
#391=ORIENTED_EDGE('',*,*,#305,.F.);
#392=ORIENTED_EDGE('',*,*,#306,.T.);
#393=ORIENTED_EDGE('',*,*,#307,.F.);
#394=ORIENTED_EDGE('',*,*,#295,.T.);
#395=ORIENTED_EDGE('',*,*,#308,.F.);
#396=ORIENTED_EDGE('',*,*,#309,.F.);
#397=ORIENTED_EDGE('',*,*,#310,.F.);
#398=ORIENTED_EDGE('',*,*,#311,.F.);
#399=ORIENTED_EDGE('',*,*,#312,.T.);
#400=ORIENTED_EDGE('',*,*,#313,.T.);
#401=ORIENTED_EDGE('',*,*,#303,.T.);
#402=ORIENTED_EDGE('',*,*,#314,.T.);
#403=ORIENTED_EDGE('',*,*,#313,.F.);
#404=ORIENTED_EDGE('',*,*,#315,.F.);
#405=ORIENTED_EDGE('',*,*,#316,.F.);
#406=ORIENTED_EDGE('',*,*,#304,.F.);
#407=ORIENTED_EDGE('',*,*,#291,.F.);
#408=ORIENTED_EDGE('',*,*,#301,.T.);
#409=ORIENTED_EDGE('',*,*,#317,.T.);
#410=ORIENTED_EDGE('',*,*,#318,.T.);
#411=ORIENTED_EDGE('',*,*,#319,.T.);
#412=ORIENTED_EDGE('',*,*,#320,.T.);
#413=ORIENTED_EDGE('',*,*,#321,.T.);
#414=ORIENTED_EDGE('',*,*,#322,.T.);
#415=ORIENTED_EDGE('',*,*,#323,.T.);
#416=ORIENTED_EDGE('',*,*,#297,.T.);
#417=ORIENTED_EDGE('',*,*,#324,.F.);
#418=ORIENTED_EDGE('',*,*,#325,.T.);
#419=ORIENTED_EDGE('',*,*,#326,.F.);
#420=ORIENTED_EDGE('',*,*,#315,.T.);
#421=ORIENTED_EDGE('',*,*,#312,.F.);
#422=ORIENTED_EDGE('',*,*,#327,.T.);
#423=ORIENTED_EDGE('',*,*,#328,.T.);
#424=ORIENTED_EDGE('',*,*,#329,.T.);
#425=ORIENTED_EDGE('',*,*,#330,.T.);
#426=ORIENTED_EDGE('',*,*,#331,.T.);
#427=ORIENTED_EDGE('',*,*,#326,.T.);
#428=ORIENTED_EDGE('',*,*,#332,.T.);
#429=ORIENTED_EDGE('',*,*,#305,.T.);
#430=ORIENTED_EDGE('',*,*,#316,.T.);
#431=ORIENTED_EDGE('',*,*,#332,.F.);
#432=ORIENTED_EDGE('',*,*,#325,.F.);
#433=ORIENTED_EDGE('',*,*,#333,.F.);
#434=ORIENTED_EDGE('',*,*,#306,.F.);
#435=ORIENTED_EDGE('',*,*,#324,.T.);
#436=ORIENTED_EDGE('',*,*,#296,.T.);
#437=ORIENTED_EDGE('',*,*,#307,.T.);
#438=ORIENTED_EDGE('',*,*,#333,.T.);
#439=ORIENTED_EDGE('',*,*,#317,.F.);
#440=ORIENTED_EDGE('',*,*,#300,.F.);
#441=ORIENTED_EDGE('',*,*,#334,.T.);
#442=ORIENTED_EDGE('',*,*,#335,.F.);
#443=ORIENTED_EDGE('',*,*,#323,.F.);
#444=ORIENTED_EDGE('',*,*,#336,.F.);
#445=ORIENTED_EDGE('',*,*,#337,.T.);
#446=ORIENTED_EDGE('',*,*,#298,.F.);
#447=ORIENTED_EDGE('',*,*,#338,.F.);
#448=ORIENTED_EDGE('',*,*,#334,.F.);
#449=ORIENTED_EDGE('',*,*,#299,.F.);
#450=ORIENTED_EDGE('',*,*,#337,.F.);
#451=ORIENTED_EDGE('',*,*,#335,.T.);
#452=ORIENTED_EDGE('',*,*,#338,.T.);
#453=ORIENTED_EDGE('',*,*,#336,.T.);
#454=ORIENTED_EDGE('',*,*,#322,.F.);
#455=ORIENTED_EDGE('',*,*,#339,.F.);
#456=ORIENTED_EDGE('',*,*,#340,.T.);
#457=ORIENTED_EDGE('',*,*,#341,.T.);
#458=ORIENTED_EDGE('',*,*,#318,.F.);
#459=ORIENTED_EDGE('',*,*,#342,.F.);
#460=ORIENTED_EDGE('',*,*,#343,.F.);
#461=ORIENTED_EDGE('',*,*,#340,.F.);
#462=ORIENTED_EDGE('',*,*,#344,.F.);
#463=ORIENTED_EDGE('',*,*,#343,.T.);
#464=ORIENTED_EDGE('',*,*,#345,.T.);
#465=ORIENTED_EDGE('',*,*,#319,.F.);
#466=ORIENTED_EDGE('',*,*,#341,.F.);
#467=ORIENTED_EDGE('',*,*,#342,.T.);
#468=ORIENTED_EDGE('',*,*,#346,.T.);
#469=ORIENTED_EDGE('',*,*,#320,.F.);
#470=ORIENTED_EDGE('',*,*,#345,.F.);
#471=ORIENTED_EDGE('',*,*,#344,.T.);
#472=ORIENTED_EDGE('',*,*,#339,.T.);
#473=ORIENTED_EDGE('',*,*,#321,.F.);
#474=ORIENTED_EDGE('',*,*,#346,.F.);
#475=ORIENTED_EDGE('',*,*,#331,.F.);
#476=ORIENTED_EDGE('',*,*,#347,.T.);
#477=ORIENTED_EDGE('',*,*,#310,.T.);
#478=ORIENTED_EDGE('',*,*,#347,.F.);
#479=ORIENTED_EDGE('',*,*,#330,.F.);
#480=ORIENTED_EDGE('',*,*,#348,.T.);
#481=ORIENTED_EDGE('',*,*,#309,.T.);
#482=ORIENTED_EDGE('',*,*,#348,.F.);
#483=ORIENTED_EDGE('',*,*,#329,.F.);
#484=ORIENTED_EDGE('',*,*,#349,.T.);
#485=ORIENTED_EDGE('',*,*,#311,.T.);
#486=ORIENTED_EDGE('',*,*,#349,.F.);
#487=ORIENTED_EDGE('',*,*,#328,.F.);
#488=ORIENTED_EDGE('',*,*,#350,.T.);
#489=ORIENTED_EDGE('',*,*,#308,.T.);
#490=ORIENTED_EDGE('',*,*,#350,.F.);
#491=ORIENTED_EDGE('',*,*,#292,.F.);
#492=ORIENTED_EDGE('',*,*,#327,.F.);
#493=ORIENTED_EDGE('',*,*,#314,.F.);
#494=ORIENTED_EDGE('',*,*,#302,.F.);
#495=PLANE('',#559);
#496=PLANE('',#560);
#497=PLANE('',#561);
#498=PLANE('',#562);
#499=PLANE('',#563);
#500=PLANE('',#564);
#501=PLANE('',#568);
#502=PLANE('',#569);
#503=PLANE('',#579);
#504=PLANE('',#580);
#505=PLANE('',#588);
#506=PLANE('',#590);
#507=PLANE('',#591);
#508=PLANE('',#592);
#509=PLANE('',#593);
#510=PLANE('',#594);
#511=PLANE('',#595);
#512=PLANE('',#596);
#513=PLANE('',#597);
#514=PLANE('',#602);
#515=ADVANCED_FACE('',(#55),#495,.T.);
#516=ADVANCED_FACE('',(#56),#496,.T.);
#517=ADVANCED_FACE('',(#57),#497,.T.);
#518=ADVANCED_FACE('',(#58),#498,.T.);
#519=ADVANCED_FACE('',(#59),#499,.T.);
#520=ADVANCED_FACE('',(#60),#500,.F.);
#521=ADVANCED_FACE('',(#61),#39,.T.);
#522=ADVANCED_FACE('',(#62),#501,.T.);
#523=ADVANCED_FACE('',(#63,#15,#16,#17,#18),#502,.F.);
#524=ADVANCED_FACE('',(#64),#40,.T.);
#525=ADVANCED_FACE('',(#65),#503,.T.);
#526=ADVANCED_FACE('',(#66,#19,#20,#21,#22),#504,.T.);
#527=ADVANCED_FACE('',(#67),#41,.T.);
#528=ADVANCED_FACE('',(#68),#505,.T.);
#529=ADVANCED_FACE('',(#69),#42,.T.);
#530=ADVANCED_FACE('',(#70),#506,.F.);
#531=ADVANCED_FACE('',(#71),#507,.F.);
#532=ADVANCED_FACE('',(#72),#508,.F.);
#533=ADVANCED_FACE('',(#73),#509,.T.);
#534=ADVANCED_FACE('',(#74),#510,.T.);
#535=ADVANCED_FACE('',(#75),#511,.T.);
#536=ADVANCED_FACE('',(#76),#512,.T.);
#537=ADVANCED_FACE('',(#77),#513,.T.);
#538=ADVANCED_FACE('',(#78),#43,.F.);
#539=ADVANCED_FACE('',(#79),#44,.F.);
#540=ADVANCED_FACE('',(#80),#45,.F.);
#541=ADVANCED_FACE('',(#81),#46,.F.);
#542=ADVANCED_FACE('',(#82),#514,.T.);
#543=CLOSED_SHELL('',(#515,#516,#517,#518,#519,#520));
#544=CLOSED_SHELL('',(#521,#522,#523,#524,#525,#526,#527,#528,#529,#530,
#531,#532,#533,#534,#535,#536,#537,#538,#539,#540,#541,#542));
#545=DERIVED_UNIT_ELEMENT(#547,1.);
#546=DERIVED_UNIT_ELEMENT(#912,-3.);
#547=(
MASS_UNIT()
NAMED_UNIT(*)
SI_UNIT(.KILO.,.GRAM.)
);
#548=DERIVED_UNIT((#545,#546));
#549=MEASURE_REPRESENTATION_ITEM('density measure',
POSITIVE_RATIO_MEASURE(7850.),#548);
#550=PROPERTY_DEFINITION_REPRESENTATION(#555,#552);
#551=PROPERTY_DEFINITION_REPRESENTATION(#556,#553);
#552=REPRESENTATION('material name',(#554),#909);
#553=REPRESENTATION('density',(#549),#909);
#554=DESCRIPTIVE_REPRESENTATION_ITEM('Steel','Steel');
#555=PROPERTY_DEFINITION('material property','material name',#924);
#556=PROPERTY_DEFINITION('material property','density of part',#924);
#557=AXIS2_PLACEMENT_3D('',#754,#604,#605);
#558=AXIS2_PLACEMENT_3D('',#755,#606,#607);
#559=AXIS2_PLACEMENT_3D('',#756,#608,#609);
#560=AXIS2_PLACEMENT_3D('',#765,#614,#615);
#561=AXIS2_PLACEMENT_3D('',#771,#619,#620);
#562=AXIS2_PLACEMENT_3D('',#777,#624,#625);
#563=AXIS2_PLACEMENT_3D('',#780,#628,#629);
#564=AXIS2_PLACEMENT_3D('',#781,#630,#631);
#565=AXIS2_PLACEMENT_3D('',#782,#632,#633);
#566=AXIS2_PLACEMENT_3D('',#785,#634,#635);
#567=AXIS2_PLACEMENT_3D('',#789,#637,#638);
#568=AXIS2_PLACEMENT_3D('',#791,#640,#641);
#569=AXIS2_PLACEMENT_3D('',#805,#649,#650);
#570=AXIS2_PLACEMENT_3D('',#809,#652,#653);
#571=AXIS2_PLACEMENT_3D('',#813,#655,#656);
#572=AXIS2_PLACEMENT_3D('',#816,#658,#659);
#573=AXIS2_PLACEMENT_3D('',#818,#660,#661);
#574=AXIS2_PLACEMENT_3D('',#820,#662,#663);
#575=AXIS2_PLACEMENT_3D('',#822,#664,#665);
#576=AXIS2_PLACEMENT_3D('',#824,#666,#667);
#577=AXIS2_PLACEMENT_3D('',#825,#668,#669);
#578=AXIS2_PLACEMENT_3D('',#828,#670,#671);
#579=AXIS2_PLACEMENT_3D('',#831,#674,#675);
#580=AXIS2_PLACEMENT_3D('',#835,#678,#679);
#581=AXIS2_PLACEMENT_3D('',#850,#687,#688);
#582=AXIS2_PLACEMENT_3D('',#853,#690,#691);
#583=AXIS2_PLACEMENT_3D('',#856,#693,#694);
#584=AXIS2_PLACEMENT_3D('',#858,#695,#696);
#585=AXIS2_PLACEMENT_3D('',#860,#697,#698);
#586=AXIS2_PLACEMENT_3D('',#862,#699,#700);
#587=AXIS2_PLACEMENT_3D('',#863,#701,#702);
#588=AXIS2_PLACEMENT_3D('',#865,#704,#705);
#589=AXIS2_PLACEMENT_3D('',#867,#707,#708);
#590=AXIS2_PLACEMENT_3D('',#868,#709,#710);
#591=AXIS2_PLACEMENT_3D('',#872,#713,#714);
#592=AXIS2_PLACEMENT_3D('',#876,#717,#718);
#593=AXIS2_PLACEMENT_3D('',#878,#720,#721);
#594=AXIS2_PLACEMENT_3D('',#884,#725,#726);
#595=AXIS2_PLACEMENT_3D('',#890,#730,#731);
#596=AXIS2_PLACEMENT_3D('',#892,#733,#734);
#597=AXIS2_PLACEMENT_3D('',#894,#736,#737);
#598=AXIS2_PLACEMENT_3D('',#895,#738,#739);
#599=AXIS2_PLACEMENT_3D('',#897,#741,#742);
#600=AXIS2_PLACEMENT_3D('',#899,#744,#745);
#601=AXIS2_PLACEMENT_3D('',#901,#747,#748);
#602=AXIS2_PLACEMENT_3D('',#903,#750,#751);
#603=AXIS2_PLACEMENT_3D('',#904,#752,#753);
#604=DIRECTION('axis',(0.,0.,1.));
#605=DIRECTION('refdir',(1.,0.,0.));
#606=DIRECTION('axis',(0.,0.,1.));
#607=DIRECTION('refdir',(1.,0.,0.));
#608=DIRECTION('center_axis',(-1.,0.,0.));
#609=DIRECTION('ref_axis',(0.,-1.,0.));
#610=DIRECTION('',(0.,1.,0.));
#611=DIRECTION('',(0.,0.,1.));
#612=DIRECTION('',(0.,-1.,0.));
#613=DIRECTION('',(0.,0.,1.));
#614=DIRECTION('center_axis',(0.,1.,0.));
#615=DIRECTION('ref_axis',(-1.,0.,0.));
#616=DIRECTION('',(1.,0.,0.));
#617=DIRECTION('',(-1.,0.,0.));
#618=DIRECTION('',(0.,0.,1.));
#619=DIRECTION('center_axis',(1.,0.,0.));
#620=DIRECTION('ref_axis',(0.,1.,0.));
#621=DIRECTION('',(0.,-1.,0.));
#622=DIRECTION('',(0.,1.,0.));
#623=DIRECTION('',(0.,0.,1.));
#624=DIRECTION('center_axis',(0.,-1.,0.));
#625=DIRECTION('ref_axis',(1.,0.,0.));
#626=DIRECTION('',(-1.,0.,0.));
#627=DIRECTION('',(1.,0.,0.));
#628=DIRECTION('center_axis',(0.,0.,1.));
#629=DIRECTION('ref_axis',(1.,0.,0.));
#630=DIRECTION('center_axis',(0.,0.,1.));
#631=DIRECTION('ref_axis',(1.,0.,0.));
#632=DIRECTION('center_axis',(0.,0.,1.));
#633=DIRECTION('ref_axis',(0.707106781186547,0.707106781186547,0.));
#634=DIRECTION('center_axis',(0.,0.,-1.));
#635=DIRECTION('ref_axis',(0.707106781186547,0.707106781186547,0.));
#636=DIRECTION('',(0.,0.,-1.));
#637=DIRECTION('center_axis',(0.,0.,1.));
#638=DIRECTION('ref_axis',(0.707106781186547,0.707106781186547,0.));
#639=DIRECTION('',(0.,0.,1.));
#640=DIRECTION('center_axis',(0.,1.,0.));
#641=DIRECTION('ref_axis',(-1.,0.,0.));
#642=DIRECTION('',(1.,0.,0.));
#643=DIRECTION('',(0.,0.,-1.));
#644=DIRECTION('',(-1.,0.,0.));
#645=DIRECTION('',(0.,0.,-1.));
#646=DIRECTION('',(1.,0.,0.));
#647=DIRECTION('',(0.,0.,1.));
#648=DIRECTION('',(-1.,0.,0.));
#649=DIRECTION('center_axis',(0.,0.,1.));
#650=DIRECTION('ref_axis',(1.,0.,0.));
#651=DIRECTION('',(0.,-1.,0.));
#652=DIRECTION('center_axis',(0.,0.,1.));
#653=DIRECTION('ref_axis',(0.707106781186547,-0.707106781186547,0.));
#654=DIRECTION('',(-1.,0.,0.));
#655=DIRECTION('center_axis',(0.,0.,1.));
#656=DIRECTION('ref_axis',(-0.707106781186548,-0.707106781186547,0.));
#657=DIRECTION('',(0.,1.,0.));
#658=DIRECTION('center_axis',(0.,0.,1.));
#659=DIRECTION('ref_axis',(-0.707106781186547,0.707106781186547,0.));
#660=DIRECTION('center_axis',(0.,0.,-1.));
#661=DIRECTION('ref_axis',(1.,0.,0.));
#662=DIRECTION('center_axis',(0.,0.,-1.));
#663=DIRECTION('ref_axis',(1.,0.,0.));
#664=DIRECTION('center_axis',(0.,0.,-1.));
#665=DIRECTION('ref_axis',(1.,0.,0.));
#666=DIRECTION('center_axis',(0.,0.,-1.));
#667=DIRECTION('ref_axis',(1.,0.,0.));
#668=DIRECTION('center_axis',(0.,0.,1.));
#669=DIRECTION('ref_axis',(0.707106781186547,-0.707106781186547,0.));
#670=DIRECTION('center_axis',(0.,0.,-1.));
#671=DIRECTION('ref_axis',(0.707106781186547,-0.707106781186547,0.));
#672=DIRECTION('',(0.,0.,-1.));
#673=DIRECTION('',(0.,0.,1.));
#674=DIRECTION('center_axis',(0.,-1.,0.));
#675=DIRECTION('ref_axis',(1.,0.,0.));
#676=DIRECTION('',(1.,0.,0.));
#677=DIRECTION('',(0.,0.,1.));
#678=DIRECTION('center_axis',(0.,0.,1.));
#679=DIRECTION('ref_axis',(1.,0.,0.));
#680=DIRECTION('',(0.,-1.,0.));
#681=DIRECTION('',(1.,0.,0.));
#682=DIRECTION('',(0.,-1.,0.));
#683=DIRECTION('',(-1.,0.,0.));
#684=DIRECTION('',(0.,1.,0.));
#685=DIRECTION('',(1.,0.,0.));
#686=DIRECTION('',(0.,1.,0.));
#687=DIRECTION('center_axis',(0.,0.,-1.));
#688=DIRECTION('ref_axis',(-0.707106781186547,0.707106781186547,0.));
#689=DIRECTION('',(0.,-1.,0.));
#690=DIRECTION('center_axis',(0.,0.,-1.));
#691=DIRECTION('ref_axis',(-0.707106781186548,-0.707106781186547,0.));
#692=DIRECTION('',(0.,1.,0.));
#693=DIRECTION('center_axis',(0.,0.,-1.));
#694=DIRECTION('ref_axis',(1.,0.,0.));
#695=DIRECTION('center_axis',(0.,0.,-1.));
#696=DIRECTION('ref_axis',(1.,0.,0.));
#697=DIRECTION('center_axis',(0.,0.,-1.));
#698=DIRECTION('ref_axis',(1.,0.,0.));
#699=DIRECTION('center_axis',(0.,0.,-1.));
#700=DIRECTION('ref_axis',(1.,0.,0.));
#701=DIRECTION('center_axis',(0.,0.,1.));
#702=DIRECTION('ref_axis',(-0.707106781186548,-0.707106781186547,0.));
#703=DIRECTION('',(0.,0.,-1.));
#704=DIRECTION('center_axis',(-1.,0.,0.));
#705=DIRECTION('ref_axis',(0.,-1.,0.));
#706=DIRECTION('',(0.,0.,1.));
#707=DIRECTION('center_axis',(0.,0.,1.));
#708=DIRECTION('ref_axis',(-0.707106781186547,0.707106781186547,0.));
#709=DIRECTION('center_axis',(1.,0.,0.));
#710=DIRECTION('ref_axis',(0.,-1.,0.));
#711=DIRECTION('',(0.,-1.,0.));
#712=DIRECTION('',(0.,0.,-1.));
#713=DIRECTION('center_axis',(-1.,0.,0.));
#714=DIRECTION('ref_axis',(0.,1.,0.));
#715=DIRECTION('',(0.,0.,1.));
#716=DIRECTION('',(0.,1.,0.));
#717=DIRECTION('center_axis',(0.,0.,-1.));
#718=DIRECTION('ref_axis',(-1.,0.,0.));
#719=DIRECTION('',(-1.,0.,0.));
#720=DIRECTION('center_axis',(0.,-1.,0.));
#721=DIRECTION('ref_axis',(1.,0.,0.));
#722=DIRECTION('',(0.,0.,1.));
#723=DIRECTION('',(1.,0.,0.));
#724=DIRECTION('',(0.,0.,1.));
#725=DIRECTION('center_axis',(0.,0.,1.));
#726=DIRECTION('ref_axis',(1.,0.,0.));
#727=DIRECTION('',(-1.,0.,0.));
#728=DIRECTION('',(0.,-1.,0.));
#729=DIRECTION('',(0.,1.,0.));
#730=DIRECTION('center_axis',(-1.,0.,0.));
#731=DIRECTION('ref_axis',(0.,-1.,0.));
#732=DIRECTION('',(0.,0.,1.));
#733=DIRECTION('center_axis',(0.,1.,0.));
#734=DIRECTION('ref_axis',(-1.,0.,0.));
#735=DIRECTION('',(0.,0.,1.));
#736=DIRECTION('center_axis',(1.,0.,0.));
#737=DIRECTION('ref_axis',(0.,1.,0.));
#738=DIRECTION('center_axis',(0.,0.,1.));
#739=DIRECTION('ref_axis',(1.,0.,0.));
#740=DIRECTION('',(0.,0.,-1.));
#741=DIRECTION('center_axis',(0.,0.,1.));
#742=DIRECTION('ref_axis',(1.,0.,0.));
#743=DIRECTION('',(0.,0.,-1.));
#744=DIRECTION('center_axis',(0.,0.,1.));
#745=DIRECTION('ref_axis',(1.,0.,0.));
#746=DIRECTION('',(0.,0.,-1.));
#747=DIRECTION('center_axis',(0.,0.,1.));
#748=DIRECTION('ref_axis',(1.,0.,0.));
#749=DIRECTION('',(0.,0.,-1.));
#750=DIRECTION('center_axis',(1.,0.,0.));
#751=DIRECTION('ref_axis',(0.,1.,0.));
#752=DIRECTION('',(0.,0.,1.));
#753=DIRECTION('',(1.,0.,0.));
#754=CARTESIAN_POINT('',(0.,0.,0.));
#755=CARTESIAN_POINT('',(0.,0.,0.));
#756=CARTESIAN_POINT('Origin',(-17.675,50.,3.));
#757=CARTESIAN_POINT('',(-17.675,6.13799999999999,3.));
#758=CARTESIAN_POINT('',(-17.675,50.,3.));
#759=CARTESIAN_POINT('',(-17.675,17.1035,3.));
#760=CARTESIAN_POINT('',(-17.675,6.13799999999999,6.));
#761=CARTESIAN_POINT('',(-17.675,6.13799999999999,3.));
#762=CARTESIAN_POINT('',(-17.675,50.,6.));
#763=CARTESIAN_POINT('',(-17.675,17.1035,6.));
#764=CARTESIAN_POINT('',(-17.675,50.,3.));
#765=CARTESIAN_POINT('Origin',(50.,50.,3.));
#766=CARTESIAN_POINT('',(50.,50.,3.));
#767=CARTESIAN_POINT('',(-0.756250000000001,50.,3.));
#768=CARTESIAN_POINT('',(50.,50.,6.));
#769=CARTESIAN_POINT('',(-0.756250000000001,50.,6.));
#770=CARTESIAN_POINT('',(50.,50.,3.));
#771=CARTESIAN_POINT('Origin',(50.,6.13799999999999,3.));
#772=CARTESIAN_POINT('',(50.,6.13799999999999,3.));
#773=CARTESIAN_POINT('',(50.,39.0345,3.));
#774=CARTESIAN_POINT('',(50.,6.13799999999999,6.));
#775=CARTESIAN_POINT('',(50.,39.0345,6.));
#776=CARTESIAN_POINT('',(50.,6.13799999999999,3.));
#777=CARTESIAN_POINT('Origin',(-17.675,6.13799999999999,3.));
#778=CARTESIAN_POINT('',(33.08125,6.13799999999999,3.));
#779=CARTESIAN_POINT('',(33.08125,6.13799999999999,6.));
#780=CARTESIAN_POINT('Origin',(16.1625,28.069,6.));
#781=CARTESIAN_POINT('Origin',(16.1625,28.069,3.));
#782=CARTESIAN_POINT('Origin',(55.5,55.5,3.1));
#783=CARTESIAN_POINT('',(55.5,60.5,13.));
#784=CARTESIAN_POINT('',(60.5,55.5,13.));
#785=CARTESIAN_POINT('Origin',(55.5,55.5,13.));
#786=CARTESIAN_POINT('',(60.5,55.5,0.));
#787=CARTESIAN_POINT('',(60.5,55.5,3.1));
#788=CARTESIAN_POINT('',(55.5,60.5,0.));
#789=CARTESIAN_POINT('Origin',(55.5,55.5,0.));
#790=CARTESIAN_POINT('',(55.5,60.5,3.1));
#791=CARTESIAN_POINT('Origin',(60.5,60.5,3.1));
#792=CARTESIAN_POINT('',(-22.175,60.5,0.));
#793=CARTESIAN_POINT('',(-27.175,60.5,0.));
#794=CARTESIAN_POINT('',(-22.175,60.5,13.));
#795=CARTESIAN_POINT('',(-22.175,60.5,3.1));
#796=CARTESIAN_POINT('',(-11.632,60.5,13.));
#797=CARTESIAN_POINT('',(-27.175,60.5,13.));
#798=CARTESIAN_POINT('',(-11.632,60.5,5.5));
#799=CARTESIAN_POINT('',(-11.632,60.5,8.05));
#800=CARTESIAN_POINT('',(6.868,60.5,5.5));
#801=CARTESIAN_POINT('',(29.059,60.5,5.5));
#802=CARTESIAN_POINT('',(6.868,60.5,13.));
#803=CARTESIAN_POINT('',(6.868,60.5,8.05));
#804=CARTESIAN_POINT('',(-27.175,60.5,13.));
#805=CARTESIAN_POINT('Origin',(16.6625,28.569,0.));
#806=CARTESIAN_POINT('',(60.5,1.63799999999999,0.));
#807=CARTESIAN_POINT('',(60.5,60.5,0.));
#808=CARTESIAN_POINT('',(55.5,-3.36200000000001,0.));
#809=CARTESIAN_POINT('Origin',(55.5,1.63799999999999,0.));
#810=CARTESIAN_POINT('',(-22.175,-3.36200000000001,0.));
#811=CARTESIAN_POINT('',(60.5,-3.36200000000001,0.));
#812=CARTESIAN_POINT('',(-27.175,1.63799999999999,0.));
#813=CARTESIAN_POINT('Origin',(-22.175,1.63799999999999,0.));
#814=CARTESIAN_POINT('',(-27.175,55.5,0.));
#815=CARTESIAN_POINT('',(-27.175,-3.36200000000001,0.));
#816=CARTESIAN_POINT('Origin',(-22.175,55.5,0.));
#817=CARTESIAN_POINT('',(52.5,1.63799999999999,0.));
#818=CARTESIAN_POINT('Origin',(55.5,1.63799999999999,0.));
#819=CARTESIAN_POINT('',(52.5,55.5,0.));
#820=CARTESIAN_POINT('Origin',(55.5,55.5,0.));
#821=CARTESIAN_POINT('',(-25.175,55.5,0.));
#822=CARTESIAN_POINT('Origin',(-22.175,55.5,0.));
#823=CARTESIAN_POINT('',(-25.175,1.63799999999999,0.));
#824=CARTESIAN_POINT('Origin',(-22.175,1.63799999999999,0.));
#825=CARTESIAN_POINT('Origin',(55.5,1.63799999999999,3.1));
#826=CARTESIAN_POINT('',(60.5,1.63799999999999,13.));
#827=CARTESIAN_POINT('',(55.5,-3.36200000000001,13.));
#828=CARTESIAN_POINT('Origin',(55.5,1.63799999999999,13.));
#829=CARTESIAN_POINT('',(55.5,-3.36200000000001,3.1));
#830=CARTESIAN_POINT('',(60.5,1.63799999999999,3.1));
#831=CARTESIAN_POINT('Origin',(-27.175,-3.36200000000001,3.1));
#832=CARTESIAN_POINT('',(-22.175,-3.36200000000001,13.));
#833=CARTESIAN_POINT('',(60.5,-3.36200000000001,13.));
#834=CARTESIAN_POINT('',(-22.175,-3.36200000000001,3.1));
#835=CARTESIAN_POINT('Origin',(16.6625,28.569,13.));
#836=CARTESIAN_POINT('',(6.868,50.,13.));
#837=CARTESIAN_POINT('',(6.868,44.5345,13.));
#838=CARTESIAN_POINT('',(50.,50.,13.));
#839=CARTESIAN_POINT('',(33.33125,50.,13.));
#840=CARTESIAN_POINT('',(50.,6.13799999999999,13.));
#841=CARTESIAN_POINT('',(50.,17.3535,13.));
#842=CARTESIAN_POINT('',(-17.675,6.13799999999999,13.));
#843=CARTESIAN_POINT('',(-0.506250000000001,6.13799999999999,13.));
#844=CARTESIAN_POINT('',(-17.675,50.,13.));
#845=CARTESIAN_POINT('',(-17.675,39.2845,13.));
#846=CARTESIAN_POINT('',(-11.632,50.,13.));
#847=CARTESIAN_POINT('',(33.33125,50.,13.));
#848=CARTESIAN_POINT('',(-11.632,39.2845,13.));
#849=CARTESIAN_POINT('',(-27.175,55.5,13.));
#850=CARTESIAN_POINT('Origin',(-22.175,55.5,13.));
#851=CARTESIAN_POINT('',(-27.175,1.63799999999999,13.));
#852=CARTESIAN_POINT('',(-27.175,-3.36200000000001,13.));
#853=CARTESIAN_POINT('Origin',(-22.175,1.63799999999999,13.));
#854=CARTESIAN_POINT('',(60.5,60.5,13.));
#855=CARTESIAN_POINT('',(52.5,1.63799999999999,13.));
#856=CARTESIAN_POINT('Origin',(55.5,1.63799999999999,13.));
#857=CARTESIAN_POINT('',(-25.175,1.63799999999999,13.));
#858=CARTESIAN_POINT('Origin',(-22.175,1.63799999999999,13.));
#859=CARTESIAN_POINT('',(52.5,55.5,13.));
#860=CARTESIAN_POINT('Origin',(55.5,55.5,13.));
#861=CARTESIAN_POINT('',(-25.175,55.5,13.));
#862=CARTESIAN_POINT('Origin',(-22.175,55.5,13.));
#863=CARTESIAN_POINT('Origin',(-22.175,1.63799999999999,3.1));
#864=CARTESIAN_POINT('',(-27.175,1.63799999999999,3.1));
#865=CARTESIAN_POINT('Origin',(-27.175,60.5,3.1));
#866=CARTESIAN_POINT('',(-27.175,55.5,3.1));
#867=CARTESIAN_POINT('Origin',(-22.175,55.5,3.1));
#868=CARTESIAN_POINT('Origin',(6.868,60.5,13.));
#869=CARTESIAN_POINT('',(6.868,50.,5.5));
#870=CARTESIAN_POINT('',(6.868,60.5,5.5));
#871=CARTESIAN_POINT('',(6.868,50.,6.5));
#872=CARTESIAN_POINT('Origin',(-11.632,50.,13.));
#873=CARTESIAN_POINT('',(-11.632,50.,5.5));
#874=CARTESIAN_POINT('',(-11.632,50.,6.5));
#875=CARTESIAN_POINT('',(-11.632,50.,5.5));
#876=CARTESIAN_POINT('Origin',(-2.382,55.25,5.5));
#877=CARTESIAN_POINT('',(-10.0285,50.,5.5));
#878=CARTESIAN_POINT('Origin',(-17.675,50.,0.));
#879=CARTESIAN_POINT('',(-17.675,50.,3.));
#880=CARTESIAN_POINT('',(-17.675,50.,0.));
#881=CARTESIAN_POINT('',(50.,50.,3.));
#882=CARTESIAN_POINT('',(-0.756250000000001,50.,3.));
#883=CARTESIAN_POINT('',(50.,50.,0.));
#884=CARTESIAN_POINT('Origin',(16.1625,28.069,3.));
#885=CARTESIAN_POINT('',(50.,6.13799999999999,3.));
#886=CARTESIAN_POINT('',(-17.675,6.13799999999999,3.));
#887=CARTESIAN_POINT('',(33.08125,6.13799999999999,3.));
#888=CARTESIAN_POINT('',(50.,39.0345,3.));
#889=CARTESIAN_POINT('',(-17.675,17.1035,3.));
#890=CARTESIAN_POINT('Origin',(50.,50.,0.));
#891=CARTESIAN_POINT('',(50.,6.13799999999999,0.));
#892=CARTESIAN_POINT('Origin',(50.,6.13799999999999,0.));
#893=CARTESIAN_POINT('',(-17.675,6.13799999999999,0.));
#894=CARTESIAN_POINT('Origin',(-17.675,6.13799999999999,0.));
#895=CARTESIAN_POINT('Origin',(-22.175,55.5,3.1));
#896=CARTESIAN_POINT('',(-25.175,55.5,3.1));
#897=CARTESIAN_POINT('Origin',(55.5,55.5,3.1));
#898=CARTESIAN_POINT('',(52.5,55.5,3.1));
#899=CARTESIAN_POINT('Origin',(-22.175,1.63799999999999,3.1));
#900=CARTESIAN_POINT('',(-25.175,1.63799999999999,3.1));
#901=CARTESIAN_POINT('Origin',(55.5,1.63799999999999,3.1));
#902=CARTESIAN_POINT('',(52.5,1.63799999999999,3.1));
#903=CARTESIAN_POINT('Origin',(60.5,-3.36200000000001,3.1));
#904=CARTESIAN_POINT('',(0.,0.,0.));
#905=UNCERTAINTY_MEASURE_WITH_UNIT(LENGTH_MEASURE(0.01),#911,
'DISTANCE_ACCURACY_VALUE',
'Maximum model space distance between geometric entities at asserted c
onnectivities');
#906=UNCERTAINTY_MEASURE_WITH_UNIT(LENGTH_MEASURE(0.01),#911,
'DISTANCE_ACCURACY_VALUE',
'Maximum model space distance between geometric entities at asserted c
onnectivities');
#907=UNCERTAINTY_MEASURE_WITH_UNIT(LENGTH_MEASURE(0.01),#911,
'DISTANCE_ACCURACY_VALUE',
'Maximum model space distance between geometric entities at asserted c
onnectivities');
#908=(
GEOMETRIC_REPRESENTATION_CONTEXT(3)
GLOBAL_UNCERTAINTY_ASSIGNED_CONTEXT((#905))
GLOBAL_UNIT_ASSIGNED_CONTEXT((#911,#913,#914))
REPRESENTATION_CONTEXT('','3D')
);
#909=(
GEOMETRIC_REPRESENTATION_CONTEXT(3)
GLOBAL_UNCERTAINTY_ASSIGNED_CONTEXT((#906))
GLOBAL_UNIT_ASSIGNED_CONTEXT((#911,#913,#914))
REPRESENTATION_CONTEXT('','3D')
);
#910=(
GEOMETRIC_REPRESENTATION_CONTEXT(3)
GLOBAL_UNCERTAINTY_ASSIGNED_CONTEXT((#907))
GLOBAL_UNIT_ASSIGNED_CONTEXT((#911,#913,#914))
REPRESENTATION_CONTEXT('','3D')
);
#911=(
LENGTH_UNIT()
NAMED_UNIT(*)
SI_UNIT(.MILLI.,.METRE.)
);
#912=(
LENGTH_UNIT()
NAMED_UNIT(*)
SI_UNIT($,.METRE.)
);
#913=(
NAMED_UNIT(*)
PLANE_ANGLE_UNIT()
SI_UNIT($,.RADIAN.)
);
#914=(
NAMED_UNIT(*)
SI_UNIT($,.STERADIAN.)
SOLID_ANGLE_UNIT()
);
#915=SHAPE_DEFINITION_REPRESENTATION(#917,#920);
#916=SHAPE_DEFINITION_REPRESENTATION(#918,#921);
#917=PRODUCT_DEFINITION_SHAPE('',$,#923);
#918=PRODUCT_DEFINITION_SHAPE('',$,#924);
#919=PRODUCT_DEFINITION_SHAPE($,$,#14);
#920=SHAPE_REPRESENTATION('',(#557,#603),#908);
#921=SHAPE_REPRESENTATION('',(#558),#909);
#922=PRODUCT_DEFINITION_CONTEXT('part definition',#930,'design');
#923=PRODUCT_DEFINITION('2026-01-10-15-11-51-221','Hack pad DOWN',#925,
#922);
#924=PRODUCT_DEFINITION('2026-01-10-15-31-52-095','Component1',#926,#922);
#925=PRODUCT_DEFINITION_FORMATION('',$,#932);
#926=PRODUCT_DEFINITION_FORMATION('',$,#933);
#927=PRODUCT_RELATED_PRODUCT_CATEGORY('Hack pad DOWN','Hack pad DOWN',(#932));
#928=PRODUCT_RELATED_PRODUCT_CATEGORY('Component1','Component1',(#933));
#929=APPLICATION_PROTOCOL_DEFINITION('international standard',
'automotive_design',2009,#930);
#930=APPLICATION_CONTEXT(
'Core Data for Automotive Mechanical Design Process');
#931=PRODUCT_CONTEXT('part definition',#930,'mechanical');
#932=PRODUCT('2026-01-10-15-11-51-221','Hack pad DOWN',$,(#931));
#933=PRODUCT('2026-01-10-15-31-52-095','Component1',$,(#931));
#934=PRESENTATION_STYLE_ASSIGNMENT((#935));
#935=SURFACE_STYLE_USAGE(.BOTH.,#936);
#936=SURFACE_SIDE_STYLE('',(#937));
#937=SURFACE_STYLE_FILL_AREA(#938);
#938=FILL_AREA_STYLE('Steel - Satin',(#939));
#939=FILL_AREA_STYLE_COLOUR('Steel - Satin',#940);
#940=COLOUR_RGB('Steel - Satin',0.627450980392157,0.627450980392157,0.627450980392157);
ENDSEC;
END-ISO-10303-21;
